# xmcd
#
# Track frame offsets: 
#        150
#        12757
#        26097
#        40316
#        53597
#        66935
#        79726
#        92519
#        106112
#        117486
#        129690
#        141218
#        154173
#        167491
#        179592
#        191548
#        201592
#        217075
#        227170
#        241644
#        255065
#        266189
#        280031
#        294339
#        305419
#
# Disc length: 4266 seconds
#
# Revision: 0
# Processed by: cddbd v1.5.2PL0 Copyright (c) Steve Scherf et al.
# Submitted via: ExactAudioCopy v0.99pb5
#
DISCID=6110a819
DTITLE=Jimmy Witherspoon - Doctor Blues
DYEAR=2009
DGENRE=Blues
TTITLE0=Cain River Blues
TTITLE1=Ain't Nobody's Business
TTITLE2=Ain't Nobody's Business (Part II)
TTITLE3=Third Floor Blues
TTITLE4=Money's Getting Cheaper (Times Gettin' Tougher Than Tough)
TTITLE5=Skidrow Blues
TTITLE6=Frogimore Blues
TTITLE7=In The Evening When The Sun Goes Down
TTITLE8=Drunk, Broke And Hungry
TTITLE9=Thelma Lee Blues
TTITLE10=Sweet Lovin' Baby
TTITLE11=Connie Lee
TTITLE12=T.B. Blues
TTITLE13=Big Fine Girl
TTITLE14=Whose Been Jivin' You
TTITLE15=Doctor Blues
TTITLE16=No Rollin' Blues
TTITLE17=Better Love Next Time
TTITLE18=Failing By Degrees
TTITLE19=There Ain't Nothing Better
TTITLE20=I'm Just Wonderin' (Part II)
TTITLE21=Just A Country Boy
TTITLE22=Love And Friendship
TTITLE23=Blowing The Blues
TTITLE24=It's Raining Outside
EXTD=
EXTT0=
EXTT1=
EXTT2=
EXTT3=
EXTT4=
EXTT5=
EXTT6=
EXTT7=
EXTT8=
EXTT9=
EXTT10=
EXTT11=
EXTT12=
EXTT13=
EXTT14=
EXTT15=
EXTT16=
EXTT17=
EXTT18=
EXTT19=
EXTT20=
EXTT21=
EXTT22=
EXTT23=
EXTT24=
PLAYORDER=
